<svg width="27" height="38" viewBox="0 0 27 38" fill="none" xmlns="http://www.w3.org/2000/svg">
<path d="M16.0068 12.5519C15.5399 12.0855 14.9453 11.768 14.298 11.6396C13.6507 11.5111 12.9798 11.5774 12.3702 11.8301C11.7606 12.0829 11.2396 12.5106 10.8731 13.0594C10.5066 13.6082 10.311 14.2533 10.311 14.9132V15.6718H9.04019C8.96923 15.6718 8.89895 15.6857 8.83337 15.7129C8.7678 15.74 8.70822 15.7798 8.65804 15.83C8.60786 15.8802 8.56806 15.9398 8.54093 16.0053C8.51379 16.0709 8.49984 16.1412 8.49988 16.2121V25.4296C8.49988 25.5729 8.5568 25.7103 8.65813 25.8116C8.75946 25.9129 8.89689 25.9699 9.04019 25.9699H18.2573C18.4006 25.9699 18.538 25.9129 18.6394 25.8116C18.7407 25.7103 18.7976 25.5729 18.7976 25.4296V20.5995C18.7976 20.4562 18.7407 20.3187 18.6394 20.2174C18.538 20.1161 18.4006 20.0592 18.2573 20.0592C18.114 20.0592 17.9766 20.1161 17.8752 20.2174C17.7739 20.3187 17.717 20.4562 17.717 20.5995V24.8892H9.5805V16.7525H10.8424H10.8513C10.8513 16.7525 10.8572 16.7525 10.8603 16.7525H16.4366H16.4459H16.4548H17.717V18.1295C17.717 18.2728 17.7739 18.4102 17.8752 18.5115C17.9766 18.6129 18.114 18.6698 18.2573 18.6698C18.4006 18.6698 18.538 18.6129 18.6394 18.5115C18.7407 18.4102 18.7976 18.2728 18.7976 18.1295V16.2121C18.7977 16.1412 18.7837 16.0709 18.7566 16.0053C18.7294 15.9398 18.6896 15.8802 18.6394 15.83C18.5893 15.7798 18.5297 15.74 18.4641 15.7129C18.3985 15.6857 18.3283 15.6718 18.2573 15.6718H16.9862V14.9132C16.9871 14.4744 16.9011 14.0398 16.733 13.6345C16.5649 13.2292 16.318 12.8612 16.0068 12.5519ZM11.3916 14.9132C11.3916 14.3146 11.6294 13.7406 12.0527 13.3173C12.4759 12.8941 13.05 12.6563 13.6486 12.6563C14.2472 12.6563 14.8212 12.8941 15.2445 13.3173C15.6678 13.7406 15.9056 14.3146 15.9056 14.9132V15.6718H11.3916V14.9132ZM13.6486 23.7064C13.7919 23.7064 13.9293 23.6495 14.0306 23.5482C14.132 23.4468 14.1889 23.3094 14.1889 23.1661V21.4448C14.598 21.3158 14.9474 21.0446 15.1739 20.6803C15.4003 20.316 15.489 19.8827 15.4237 19.4587C15.3584 19.0347 15.1435 18.6481 14.8179 18.3689C14.4923 18.0896 14.0775 17.936 13.6486 17.936C13.2196 17.936 12.8048 18.0896 12.4793 18.3689C12.1537 18.6481 11.9388 19.0347 11.8735 19.4587C11.8082 19.8827 11.8968 20.316 12.1233 20.6803C12.3498 21.0446 12.6992 21.3158 13.1083 21.4448V23.1661C13.1083 23.3094 13.1652 23.4468 13.2665 23.5482C13.3679 23.6495 13.5053 23.7064 13.6486 23.7064ZM13.6486 19.0168C13.8357 19.0196 14.0143 19.0957 14.146 19.2287C14.2777 19.3616 14.352 19.541 14.353 19.7281C14.3539 19.9153 14.2815 20.0953 14.1512 20.2297C14.0209 20.364 13.8431 20.4419 13.656 20.4466H13.6486H13.6412C13.4541 20.4419 13.2763 20.364 13.146 20.2297C13.0157 20.0953 12.9432 19.9153 12.9442 19.7281C12.9452 19.541 13.0195 19.3616 13.1512 19.2287C13.2829 19.0957 13.4615 19.0196 13.6486 19.0168ZM0.817566 16.9587V15.4149C0.817566 15.2716 0.874492 15.1342 0.97582 15.0329C1.07715 14.9316 1.21458 14.8746 1.35788 14.8746C1.50118 14.8746 1.63861 14.9316 1.73994 15.0329C1.84127 15.1342 1.89819 15.2716 1.89819 15.4149V16.9587C1.89819 17.102 1.84127 17.2394 1.73994 17.3408C1.63861 17.4421 1.50118 17.499 1.35788 17.499C1.21458 17.499 1.07715 17.4421 0.97582 17.3408C0.874492 17.2394 0.817566 17.102 0.817566 16.9587ZM24.0868 0.479172H3.21038C2.57599 0.479907 1.9678 0.732242 1.51922 1.18082C1.07064 1.6294 0.818301 2.2376 0.817566 2.87198V13.3309C0.817566 13.4742 0.874492 13.6116 0.97582 13.7129C1.07715 13.8143 1.21458 13.8712 1.35788 13.8712C1.50118 13.8712 1.63861 13.8143 1.73994 13.7129C1.84127 13.6116 1.89819 13.4742 1.89819 13.3309V2.87198C1.8986 2.5241 2.03698 2.19057 2.28297 1.94458C2.52897 1.69858 2.86249 1.5602 3.21038 1.5598H7.08241L8.2217 3.92945C8.26574 4.0212 8.33482 4.09863 8.42097 4.15282C8.50712 4.20701 8.60682 4.23575 8.70859 4.23573H18.5886C18.6904 4.23575 18.7901 4.20701 18.8762 4.15282C18.9624 4.09863 19.0314 4.0212 19.0755 3.92945L20.2148 1.5598H24.0868C24.4347 1.5602 24.7682 1.69858 25.0142 1.94458C25.2602 2.19057 25.3986 2.5241 25.399 2.87198V34.6732C25.3986 35.0211 25.2602 35.3546 25.0142 35.6006C24.7682 35.8466 24.4347 35.985 24.0868 35.9854H3.21038C2.86249 35.985 2.52897 35.8466 2.28297 35.6006C2.03698 35.3546 1.8986 35.0211 1.89819 34.6732V19.3901C1.89819 19.2468 1.84127 19.1094 1.73994 19.008C1.63861 18.9067 1.50118 18.8498 1.35788 18.8498C1.21458 18.8498 1.07715 18.9067 0.97582 19.008C0.874492 19.1094 0.817566 19.2468 0.817566 19.3901V34.6732C0.818301 35.3076 1.07064 35.9158 1.51922 36.3644C1.9678 36.813 2.57599 37.0653 3.21038 37.066H24.0868C24.7212 37.0653 25.3294 36.813 25.778 36.3644C26.2265 35.9158 26.4789 35.3076 26.4796 34.6732V2.87198C26.4789 2.2376 26.2265 1.6294 25.778 1.18082C25.3294 0.732242 24.7212 0.479907 24.0868 0.479172ZM18.249 3.15511H9.04822L8.28128 1.5598H19.0159L18.249 3.15511ZM16.9677 31.9201C17.111 31.9201 17.2484 31.977 17.3497 32.0784C17.451 32.1797 17.508 32.3171 17.508 32.4604C17.508 32.6037 17.451 32.7411 17.3497 32.8425C17.2484 32.9438 17.111 33.0007 16.9677 33.0007H10.3295C10.1862 33.0007 10.0488 32.9438 9.94747 32.8425C9.84614 32.7411 9.78922 32.6037 9.78922 32.4604C9.78922 32.3171 9.84614 32.1797 9.94747 32.0784C10.0488 31.977 10.1862 31.9201 10.3295 31.9201H16.9677Z" fill="url(#paint0_linear)"/>
<defs>
<linearGradient id="paint0_linear" x1="0.817566" y1="18.7726" x2="26.4796" y2="18.7726" gradientUnits="userSpaceOnUse">
<stop stop-color="#E97B83"/>
<stop offset="1" stop-color="#23CEB0"/>
</linearGradient>
</defs>
</svg>
