<?xml version="1.0" encoding="utf-8"?>
<!-- Generator: Adobe Illustrator 21.0.0, SVG Export Plug-In . SVG Version: 6.00 Build 0)  -->
<svg version="1.1" id="Layer_1" xmlns="http://www.w3.org/2000/svg" xmlns:xlink="http://www.w3.org/1999/xlink" x="0px" y="0px"
	 viewBox="0 0 220 40" style="enable-background:new 0 0 220 40;" xml:space="preserve">
<style type="text/css">
	.st0{fill:#E55923;}
	.st1{fill:#404041;}
	.st2{fill:#231F20;}
</style>
<g id="XMLID_47_">
	<g id="XMLID_54_">
		<g id="XMLID_64_">
			<g>
				<path class="st0" d="M37.3,7.3c-1.6,0.7-2.9,1.7-3.8,3c-0.9,1.3-1.3,3-1.3,4.9c0,0.9,0.1,1.5,0.3,1.9c0.2,0.4,0.3,0.6,0.3,0.6
					c-1.3,0-2.3-0.3-2.9-0.8c-0.6-0.5-1-1.4-1-2.7c0-1.6,0.6-3.1,1.9-4.5C32,8.1,33.7,6.9,35.7,6c2-0.9,4-1.4,6-1.4
					c0.3,0,0.8,0,1.5,0.1L37.3,32h-5.2L37.3,7.3z"/>
				<path class="st0" d="M52.2,31c-0.7-0.8-1-1.8-1-2.9c0-0.5,0.1-1.1,0.2-1.7c0.1-0.6,0.2-1.3,0.4-1.9c0.1-0.6,0.2-1,0.3-1.2
					c0.2-0.8,0.4-1.7,0.5-2.5c0.2-0.8,0.3-1.5,0.3-2c0-1.2-0.4-1.9-1.3-1.9c-0.6,0-1.2,0.3-1.7,0.9c-0.5,0.6-0.9,1.4-1.2,2.4
					L46.1,32h-5.2l3.9-18.2H50l-0.4,1.9c1.2-1.4,2.6-2,4.3-2c1.2,0,2.2,0.3,2.9,1c0.7,0.7,1.1,1.7,1.1,3.1c0,0.7-0.1,1.5-0.3,2.3
					c-0.2,0.9-0.4,1.9-0.7,3.1c-0.2,0.8-0.4,1.5-0.5,2.2c-0.2,0.7-0.2,1.3-0.2,1.7c0,0.5,0.1,0.9,0.3,1.1c0.2,0.3,0.6,0.4,1.1,0.4
					c0.7,0,1.3-0.3,1.7-0.8c0.4-0.5,0.9-1.3,1.3-2.4h1.5c-0.9,2.7-1.9,4.5-3.1,5.4c-1.2,0.9-2.4,1.4-3.7,1.4
					C53.9,32.2,52.9,31.8,52.2,31z"/>
				<path class="st0" d="M61.4,31.1c-0.7-0.7-1.1-1.8-1.1-3.3c0-0.6,0.1-1.4,0.3-2.4l2.2-10.2h-1.2l0.3-1.5h1.2l1.1-5L69.6,8
					l-1.2,5.7h2.2l-0.3,1.5h-2.2l-2.3,10.9c-0.1,0.4-0.1,0.8-0.1,1.2c0,0.5,0.1,0.8,0.3,1c0.2,0.2,0.6,0.3,1.1,0.3
					c0.7,0,1.4-0.3,2-0.9c0.6-0.6,1-1.4,1.3-2.3h1.5c-0.9,2.6-2,4.4-3.5,5.3c-1.4,0.9-2.8,1.4-4.2,1.4
					C63.1,32.2,62.2,31.8,61.4,31.1z"/>
				<path class="st0" d="M71.4,30.8c-1-0.9-1.5-2.4-1.5-4.4c0-1.7,0.3-3.5,1-5.5c0.7-2,1.7-3.8,3.2-5.2c1.5-1.5,3.4-2.2,5.6-2.2
					c2.7,0,4,1.2,4,3.5c0,1.4-0.4,2.6-1.2,3.7c-0.8,1.1-1.8,2.1-3.1,2.7c-1.3,0.7-2.7,1.1-4.1,1.2c0,0.7-0.1,1.2-0.1,1.5
					c0,1.2,0.2,2,0.6,2.4s1.1,0.6,2,0.6c1.3,0,2.4-0.3,3.4-0.9c0.9-0.6,2-1.5,3.1-2.8h1.2c-2.7,4.5-6,6.7-10,6.7
					C73.8,32.2,72.4,31.7,71.4,30.8z M78.2,21.9c0.8-0.6,1.5-1.3,2-2.2c0.5-0.9,0.7-1.8,0.7-2.8c0-1-0.3-1.5-0.9-1.5
					c-0.9,0-1.7,0.8-2.6,2.3c-0.8,1.5-1.4,3.3-1.8,5.2C76.5,22.8,77.4,22.5,78.2,21.9z"/>
				<path class="st0" d="M86.8,13.8h5.2L91.6,16c0.8-0.7,1.6-1.3,2.2-1.7c0.7-0.4,1.4-0.6,2.2-0.6c0.8,0,1.4,0.3,1.8,0.8
					c0.4,0.5,0.7,1.2,0.7,1.9c0,0.7-0.2,1.3-0.7,1.9c-0.5,0.5-1.1,0.8-1.9,0.8c-0.5,0-0.9-0.1-1.1-0.4c-0.2-0.3-0.3-0.6-0.4-1.1
					c-0.1-0.3-0.1-0.5-0.2-0.7c-0.1-0.1-0.2-0.2-0.4-0.2c-0.5,0-0.9,0.1-1.3,0.3c-0.4,0.2-0.8,0.6-1.4,1.1L88.2,32H83L86.8,13.8z"/>
				<path class="st0" d="M98.8,31.1c-0.7-0.7-1.1-1.8-1.1-3.3c0-0.6,0.1-1.4,0.3-2.4l2.5-11.7h5.2l-2.6,12.4
					c-0.1,0.4-0.1,0.8-0.1,1.2c0,0.5,0.1,0.8,0.3,1c0.2,0.2,0.6,0.3,1.1,0.3c0.7,0,1.4-0.3,2-0.9c0.6-0.6,1-1.4,1.3-2.3h1.5
					c-0.9,2.6-2.1,4.4-3.5,5.3c-1.4,0.9-2.8,1.4-4.2,1.4C100.5,32.2,99.5,31.8,98.8,31.1z M102.1,11c-0.6-0.6-0.8-1.2-0.8-2
					c0-0.8,0.3-1.5,0.8-2.1c0.6-0.6,1.2-0.9,2-0.9c0.8,0,1.5,0.3,2.1,0.9c0.6,0.6,0.9,1.3,0.9,2.1c0,0.8-0.3,1.5-0.9,2
					c-0.6,0.6-1.3,0.8-2.1,0.8C103.3,11.8,102.6,11.5,102.1,11z"/>
				<path class="st0" d="M108.8,30.7c-1-0.9-1.6-2.4-1.6-4.4c0-1.6,0.3-3.5,1-5.5c0.7-2,1.8-3.8,3.3-5.2c1.5-1.5,3.4-2.2,5.7-2.2
					c3.1,0,4.7,1.9,4.7,5.8v0c0.1,0,0.2,0,0.4,0c0.8,0,1.7-0.2,2.8-0.6c1-0.4,2-0.9,2.8-1.5l0.3,1c-0.7,0.8-1.6,1.4-2.7,1.9
					c-1.1,0.5-2.4,0.9-3.7,1.1c-0.2,2.2-0.7,4.1-1.5,5.8c-0.8,1.6-1.8,2.9-3.1,3.8c-1.3,0.9-2.6,1.3-4.1,1.3
					C111.3,32.1,109.8,31.6,108.8,30.7z M116.3,27.8c0.6-0.7,1.1-1.6,1.5-2.7c0.4-1.2,0.8-2.4,0.9-3.8c-0.7-0.1-1-0.7-1-1.5
					c0-1,0.4-1.6,1.1-2c0-0.8-0.2-1.4-0.4-1.7c-0.2-0.3-0.5-0.5-1-0.5c-0.8,0-1.6,0.6-2.3,1.7c-0.8,1.2-1.4,2.6-1.8,4.2
					c-0.5,1.6-0.7,3.1-0.7,4.3c0,1.2,0.1,1.9,0.4,2.3c0.3,0.4,0.8,0.6,1.5,0.6C115.1,28.8,115.7,28.5,116.3,27.8z"/>
				<path class="st0" d="M126.2,13.8h5.2L131,16c0.8-0.7,1.6-1.3,2.2-1.7c0.7-0.4,1.4-0.6,2.2-0.6c0.8,0,1.4,0.3,1.8,0.8
					c0.4,0.5,0.7,1.2,0.7,1.9c0,0.7-0.2,1.3-0.7,1.9c-0.5,0.5-1.1,0.8-1.9,0.8c-0.5,0-0.9-0.1-1.1-0.4c-0.2-0.3-0.3-0.6-0.4-1.1
					c-0.1-0.3-0.1-0.5-0.2-0.7c-0.1-0.1-0.2-0.2-0.4-0.2c-0.5,0-0.9,0.1-1.3,0.3c-0.4,0.2-0.8,0.6-1.4,1.1L127.6,32h-5.2L126.2,13.8
					z"/>
				<path class="st1" d="M149.1,7c-1.8,0.6-3.3,1.6-4.3,3c-1,1.4-1.5,3.1-1.5,5.2c0,0.9,0.1,1.6,0.3,1.9c0.2,0.3,0.3,0.5,0.3,0.6
					c-2.6,0-3.9-1.1-3.9-3.3c0-1.5,0.6-3,1.7-4.5s2.6-2.8,4.4-3.7c1.8-1,3.6-1.4,5.4-1.4c0.9,0,1.8,0.2,2.8,0.5l-0.8,19.2l8-19.2
					h5.2L162.8,32h-5.2l2.3-16.3L153.1,32h-5l0.7-16.4L142.7,32h-2.9L149.1,7z"/>
				<path class="st1" d="M166.9,30.8c-0.9-0.9-1.4-2.4-1.4-4.4c0-1.8,0.4-3.7,1.1-5.7c0.7-2,1.8-3.7,3.2-5c1.4-1.4,3.1-2.1,5.1-2.1
					c1,0,1.7,0.2,2.2,0.5c0.5,0.3,0.7,0.8,0.7,1.3v0.3l0.4-1.9h5.2l-2.6,12.4c-0.1,0.4-0.1,0.8-0.1,1.2c0,1,0.5,1.6,1.5,1.6
					c0.7,0,1.3-0.3,1.8-0.9c0.5-0.6,0.9-1.5,1.2-2.5h1.5c-0.9,2.6-2,4.4-3.3,5.3c-1.3,0.9-2.7,1.4-4,1.4c-1,0-1.8-0.3-2.5-0.9
					c-0.6-0.6-1-1.4-1.1-2.5c-0.7,1-1.5,1.8-2.3,2.4c-0.9,0.6-1.9,0.9-3.1,0.9C169,32.2,167.9,31.7,166.9,30.8z M174.6,27.8
					c0.6-0.6,1-1.4,1.2-2.3l1.7-8.2c0-0.3-0.1-0.6-0.4-0.9c-0.2-0.3-0.6-0.5-1.1-0.5c-1,0-1.8,0.6-2.6,1.7c-0.8,1.1-1.4,2.5-1.8,4.1
					c-0.4,1.6-0.7,3-0.7,4.2c0,1.2,0.2,2,0.5,2.3c0.4,0.3,0.8,0.5,1.3,0.5C173.4,28.6,174,28.4,174.6,27.8z"/>
				<path class="st1" d="M187.6,13.8h5.2l-0.5,2.3c0.8-0.7,1.6-1.3,2.2-1.7c0.7-0.4,1.4-0.6,2.2-0.6c0.8,0,1.4,0.3,1.8,0.8
					c0.4,0.5,0.7,1.2,0.7,1.9c0,0.7-0.2,1.3-0.7,1.9c-0.5,0.5-1.1,0.8-1.9,0.8c-0.5,0-0.9-0.1-1.1-0.4c-0.2-0.3-0.3-0.6-0.4-1.1
					c-0.1-0.3-0.1-0.5-0.2-0.7c-0.1-0.1-0.2-0.2-0.4-0.2c-0.5,0-0.9,0.1-1.3,0.3c-0.4,0.2-0.8,0.6-1.4,1.1L189,32h-5.2L187.6,13.8z"
					/>
				<path class="st1" d="M199.5,31c-0.6-0.8-0.9-1.7-0.9-3c0-0.6,0.1-1.3,0.2-1.9l2.3-10.9H200l0.3-1.5h1.2l1.1-5l5.4-0.7
					c-0.2,0.9-0.3,1.5-0.4,1.6c-0.2,0.7-0.5,2.1-0.9,4.1h2.2l-0.3,1.5h-2.2l-2.3,10.9c-0.1,0.5-0.2,1-0.2,1.3c0,0.9,0.4,1.3,1.3,1.3
					c0.4,0,0.8,0,0.9-0.1c-0.5,1.4-1.1,2.4-1.7,2.8c-0.7,0.5-1.4,0.7-2.1,0.7C201,32.2,200.1,31.8,199.5,31z"/>
			</g>
			<g>
				<g>
					<path class="st1" d="M15.4,30.6c-0.5-0.5-0.7-1.2-0.7-2c0-0.3,0-0.7,0.1-1.2c0.1-0.4,0.2-0.9,0.3-1.3c0.1-0.4,0.2-0.7,0.2-0.8
						c0.1-0.6,0.3-1.1,0.4-1.7c0.1-0.6,0.2-1,0.2-1.3c0-0.8-0.3-1.2-0.9-1.2c-0.4,0-0.8,0.2-1.1,0.6c-0.3,0.4-0.6,1-0.8,1.6
						l-1.7,7.9H7.8l1.8-8.4c0-0.2,0.1-0.4,0.1-0.6c0-0.7-0.2-1.1-0.7-1.1c-0.5,0-0.9,0.2-1.2,0.6c-0.3,0.4-0.6,1-0.8,1.7l-1.7,7.9
						H1.8L4.3,19h3.5l-0.3,1.3c0.8-0.9,1.8-1.4,3-1.4c1.4,0,2.3,0.7,2.5,2.1c0.9-1.4,2-2.1,3.4-2.1c0.8,0,1.5,0.2,2,0.7
						c0.5,0.5,0.7,1.2,0.7,2.1c0,0.5-0.1,1-0.2,1.6c-0.1,0.6-0.3,1.3-0.5,2.1c-0.1,0.5-0.2,1-0.4,1.5c-0.1,0.5-0.2,0.9-0.2,1.1
						c0,0.3,0.1,0.6,0.2,0.8c0.1,0.2,0.4,0.3,0.8,0.3c0.5,0,0.9-0.2,1.2-0.5c0.3-0.4,0.6-0.9,0.9-1.6h1c-0.6,1.8-1.3,3-2.1,3.6
						c-0.8,0.6-1.6,0.9-2.5,0.9C16.6,31.4,15.8,31.1,15.4,30.6z"/>
					<path class="st1" d="M22.9,36.6c-0.6-0.5-0.9-1.1-0.9-1.9c0-0.7,0.2-1.3,0.5-1.8c0.4-0.5,0.8-0.8,1.4-1.1
						c0.6-0.3,1.3-0.5,2.3-0.8l0.2-1.1c-0.8,0.9-1.8,1.4-3,1.4c-0.8,0-1.4-0.2-1.9-0.7c-0.5-0.5-0.7-1.2-0.7-2.2
						c0-0.4,0.1-0.9,0.2-1.6l1.7-7.9h3.5l-1.8,8.3c0,0.2-0.1,0.4-0.1,0.6c0,0.7,0.2,1.1,0.7,1.1c0.5,0,0.8-0.2,1.2-0.6
						c0.3-0.4,0.6-0.9,0.8-1.6l1.7-7.9h3.5l-3,14.2c-0.3,1.6-0.9,2.7-1.7,3.3c-0.8,0.6-1.7,0.9-2.7,0.9
						C24.1,37.4,23.5,37.1,22.9,36.6z M25.2,34.8c0.3-0.3,0.5-0.8,0.6-1.5l0.3-1.4c-0.9,0.3-1.5,0.6-2,1c-0.5,0.4-0.7,0.9-0.7,1.5
						c0,0.2,0.1,0.4,0.3,0.5c0.2,0.2,0.4,0.3,0.7,0.3C24.6,35.2,24.9,35.1,25.2,34.8z"/>
				</g>
			</g>
		</g>
	</g>
	<g>
		<path class="st2" d="M210.8,7.6V3.7h-1.4V3.2h3.5v0.5h-1.4v3.9H210.8z"/>
		<path class="st2" d="M213.4,7.6V3.2h0.9l1,3.1c0.1,0.3,0.2,0.5,0.2,0.6c0-0.2,0.1-0.4,0.2-0.7l1-3h0.8v4.4H217V3.9l-1.3,3.7h-0.5
			l-1.3-3.7v3.7H213.4z"/>
	</g>
</g>
</svg>
