<svg id="Layer_1" height="512" viewBox="0 0 128 128" width="512" xmlns="http://www.w3.org/2000/svg" xmlns:xlink="http://www.w3.org/1999/xlink" data-name="Layer 1"><linearGradient id="linear-gradient" gradientUnits="userSpaceOnUse" x1="4.75" x2="123.25" y1="64" y2="64"><stop offset="0" stop-color="#e97b83"/><stop offset="1" stop-color="#23ceb0"/></linearGradient><path d="m123.25 78.25v4.625a1.75 1.75 0 0 1 -3.5 0v-4.625a1.75 1.75 0 0 1 3.5 0zm0-29.51v22.573a1.75 1.75 0 0 1 -3.5 0v-19.113l-31.191 22.922 31.191 41.171v-26.043a1.75 1.75 0 0 1 3.5 0v31.25c0 .038-.009.073-.011.111a1.616 1.616 0 0 1 -.019.184 1.522 1.522 0 0 1 -.039.165c-.015.054-.03.108-.05.16a1.493 1.493 0 0 1 -.071.158 1.561 1.561 0 0 1 -.079.145 1.635 1.635 0 0 1 -.1.144c-.032.042-.065.084-.1.124a1.679 1.679 0 0 1 -.145.134c-.026.022-.047.049-.074.07-.008.006-.018.007-.026.013a1.755 1.755 0 0 1 -.443.234c-.033.011-.064.02-.1.029a1.718 1.718 0 0 1 -.488.079h-115.005a1.784 1.784 0 0 1 -.487-.078c-.033-.01-.065-.019-.1-.031a1.736 1.736 0 0 1 -.441-.232c-.008-.007-.018-.008-.027-.014-.028-.022-.049-.049-.076-.071a1.787 1.787 0 0 1 -.142-.133 1.544 1.544 0 0 1 -.1-.126 1.58 1.58 0 0 1 -.1-.141c-.029-.048-.055-.1-.08-.148a1.648 1.648 0 0 1 -.07-.154c-.02-.054-.036-.109-.051-.164s-.029-.107-.038-.162a1.668 1.668 0 0 1 -.019-.187c0-.037-.011-.072-.011-.109v-72.76a1.741 1.741 0 0 1 .046-.385c.008-.035.021-.068.031-.1a1.768 1.768 0 0 1 .087-.255c.018-.038.04-.074.061-.111a1.765 1.765 0 0 1 .14-.212c.027-.035.054-.068.083-.1a1.822 1.822 0 0 1 .2-.185c.021-.017.038-.04.06-.056l16.974-12.481v-13.855a1.75 1.75 0 0 1 1.75-1.75h19.5l19.274-14.16a1.749 1.749 0 0 1 2.072 0l10.449 7.674a1.75 1.75 0 1 1 -2.072 2.82l-9.413-6.913-14.4 10.579h54.21a1.75 1.75 0 0 1 1.75 1.75v13.855l16.976 12.475c.022.016.038.038.059.055a1.667 1.667 0 0 1 .2.186q.043.05.084.1a1.735 1.735 0 0 1 .139.21c.021.038.043.074.061.113a1.633 1.633 0 0 1 .094.256c.011.035.024.068.032.1a1.741 1.741 0 0 1 .045.39zm-97.31-25.99v38.106l16.99 12.487c.012.008.025.013.037.022l.023.022 21.01 15.441 21.01-15.441.023-.022c.012-.009.025-.014.037-.022l16.99-12.487v-38.106zm-16.485 25.99 12.985 9.544v-19.084zm76.284 28.454-20.703 15.216a1.75 1.75 0 0 1 -2.073 0l-20.7-15.215-5.118 6.756a1.75 1.75 0 0 1 -2.79-2.113l5.087-6.716-31.192-22.922v64.094l21.141-27.9a1.75 1.75 0 0 1 2.79 2.113l-22.16 29.25h107.958zm32.806-28.454-12.985-9.54v19.084zm-47.06-15.182h21.265a1.75 1.75 0 0 0 0-3.5h-21.265a1.75 1.75 0 0 0 0 3.5zm-36.235 18h57.5a1.75 1.75 0 0 0 0-3.5h-57.5a1.75 1.75 0 0 0 0 3.5zm0 9h57.5a1.75 1.75 0 0 0 0-3.5h-57.5a1.75 1.75 0 0 0 0 3.5z" fill="url(#linear-gradient)"/></svg>