<svg id="Layer_1" height="512" viewBox="0 0 128 128" width="512" xmlns="http://www.w3.org/2000/svg" xmlns:xlink="http://www.w3.org/1999/xlink" data-name="Layer 1"><linearGradient id="linear-gradient" gradientUnits="userSpaceOnUse" x1="22.442" x2="105.558" y1="64" y2="64"><stop offset="0" stop-color="#e97b83"/><stop offset="1" stop-color="#23ceb0"/></linearGradient><path d="m71.638 43.852a10.809 10.809 0 0 0 -18.448 7.648v2.457h-4.116a1.749 1.749 0 0 0 -1.75 1.75v29.854a1.75 1.75 0 0 0 1.75 1.75h29.853a1.75 1.75 0 0 0 1.75-1.75v-15.644a1.75 1.75 0 0 0 -3.5 0v13.894h-26.353v-26.354h4.087.029s.019 0 .029 0h18.061.03.029 4.088v4.46a1.75 1.75 0 0 0 3.5 0v-6.21a1.749 1.749 0 0 0 -1.75-1.75h-4.117v-2.457a10.75 10.75 0 0 0 -3.172-7.648zm-14.948 7.648a7.31 7.31 0 0 1 14.62 0v2.457h-14.62zm7.31 28.48a1.75 1.75 0 0 0 1.75-1.75v-5.575a5.817 5.817 0 1 0 -3.5 0v5.575a1.75 1.75 0 0 0 1.75 1.75zm0-15.189a2.316 2.316 0 0 1 .024 4.631h-.024-.024a2.316 2.316 0 0 1 .024-4.631zm-41.558-6.666v-5a1.75 1.75 0 0 1 3.5 0v5a1.75 1.75 0 0 1 -3.5 0zm75.366-53.375h-67.616a7.759 7.759 0 0 0 -7.75 7.75v33.875a1.75 1.75 0 0 0 3.5 0v-33.875a4.255 4.255 0 0 1 4.25-4.25h12.541l3.69 7.675a1.749 1.749 0 0 0 1.577.992h32a1.749 1.749 0 0 0 1.577-.992l3.69-7.675h12.541a4.255 4.255 0 0 1 4.25 4.25v103a4.255 4.255 0 0 1 -4.25 4.25h-67.616a4.255 4.255 0 0 1 -4.25-4.25v-49.5a1.75 1.75 0 0 0 -3.5 0v49.5a7.759 7.759 0 0 0 7.75 7.75h67.616a7.759 7.759 0 0 0 7.75-7.75v-103a7.759 7.759 0 0 0 -7.75-7.75zm-18.908 8.667h-29.8l-2.484-5.167h34.768zm-4.15 93.166a1.75 1.75 0 0 1 0 3.5h-21.5a1.75 1.75 0 0 1 0-3.5z" fill="url(#linear-gradient)"/></svg>