<svg id="Layer_1" height="512" viewBox="0 0 128 128" width="512" xmlns="http://www.w3.org/2000/svg" xmlns:xlink="http://www.w3.org/1999/xlink" data-name="Layer 1"><linearGradient id="linear-gradient" gradientUnits="userSpaceOnUse" x1="4.75" x2="123.25" y1="64" y2="64"><stop offset="0" stop-color="#e97b83"/><stop offset="1" stop-color="#23ceb0"/></linearGradient><path d="m16.4 57.287 6.071-33.409a1.75 1.75 0 0 1 1.719-1.438h38.429a21.651 21.651 0 0 1 42.724.931 1.719 1.719 0 0 1 .188.506l10.637 58.509a1.75 1.75 0 0 1 -1.408 2.035 1.8 1.8 0 0 1 -.316.028 1.75 1.75 0 0 1 -1.719-1.436l-8.555-47.056c-4.49 15.965-18.395 28.707-19.096 29.343a1.749 1.749 0 0 1 -2.347 0 80.635 80.635 0 0 1 -12.784-15.585 1.751 1.751 0 0 1 2.969-1.856 79.821 79.821 0 0 0 10.988 13.712c4.19-4.176 18.162-19.3 18.162-35.171a18.155 18.155 0 0 0 -36.31 0 30.949 30.949 0 0 0 .9 7.239 1.75 1.75 0 1 1 -3.4.822 34.451 34.451 0 0 1 -1-8.061c0-.154.008-.306.012-.46h-36.613l-5.809 31.972a1.751 1.751 0 0 1 -1.72 1.438 1.683 1.683 0 0 1 -.314-.029 1.75 1.75 0 0 1 -1.408-2.034zm106.824 63.9-3.141-17.278a1.75 1.75 0 1 0 -3.443.626l2.76 15.215h-110.8l9.958-54.786a1.75 1.75 0 0 0 -3.444-.625l-10.336 56.849a1.75 1.75 0 0 0 1.722 2.062h115a1.75 1.75 0 0 0 1.722-2.062zm-7.632-32.187a1.75 1.75 0 0 0 -1.408 2.035l.958 5.27a1.749 1.749 0 0 0 1.719 1.436 1.8 1.8 0 0 0 .316-.028 1.75 1.75 0 0 0 1.408-2.035l-.958-5.27a1.742 1.742 0 0 0 -2.035-1.408zm-11.885-15.059a1.751 1.751 0 0 0 -1.408 2.036l4.09 22.5a1.749 1.749 0 0 0 1.719 1.436 1.8 1.8 0 0 0 .316-.028 1.75 1.75 0 0 0 1.408-2.035l-4.09-22.5a1.743 1.743 0 0 0 -2.035-1.409zm-60.457-40.751a1.75 1.75 0 0 0 -1.75-1.75h-9.8a1.751 1.751 0 0 0 -1.722 1.438l-1.629 8.97a1.75 1.75 0 0 0 1.409 2.034 1.77 1.77 0 0 0 .314.028 1.75 1.75 0 0 0 1.72-1.437l1.369-7.533h8.339a1.749 1.749 0 0 0 1.75-1.75zm25.231 6.088a1.75 1.75 0 0 0 -3.246 1.311c.411 1.017.869 2.055 1.364 3.082a1.75 1.75 0 1 0 3.154-1.516c-.461-.955-.889-1.927-1.272-2.877zm2.769-12.878a12.654 12.654 0 1 1 12.65 12.658 12.669 12.669 0 0 1 -12.65-12.658zm3.5 0a9.154 9.154 0 1 0 9.15-9.15 9.164 9.164 0 0 0 -9.15 9.15zm-53.06 80.237c-.394.9-.774 1.838-1.161 2.859a1.75 1.75 0 0 0 3.274 1.24c.366-.966.724-1.849 1.094-2.7a1.75 1.75 0 1 0 -3.207-1.4zm40.478-22.327c-2.037.232-4.2.427-6.3.617a1.75 1.75 0 0 0 .156 3.493c.053 0 .107 0 .16-.007 2.114-.191 4.3-.39 6.376-.627a1.749 1.749 0 0 0 -.4-3.476zm-21.735 6.89a1.756 1.756 0 0 0 .646-.124 30.321 30.321 0 0 1 5.777-1.638 1.75 1.75 0 1 0 -.627-3.438 33.856 33.856 0 0 0 -6.445 1.829 1.75 1.75 0 0 0 .649 3.376zm-9.263 1.879a32.446 32.446 0 0 0 -4.556 4.936 1.75 1.75 0 0 0 2.8 2.1 28.879 28.879 0 0 1 4.062-4.4 1.75 1.75 0 1 0 -2.3-2.635zm45.394-12.791a19.349 19.349 0 0 1 -5.313 2.36 1.75 1.75 0 0 0 .99 3.358 22.849 22.849 0 0 0 6.259-2.806 1.75 1.75 0 0 0 -1.938-2.914zm5.617-9.251a18.4 18.4 0 0 1 -.655 2.657 1.75 1.75 0 0 0 1.112 2.211 1.728 1.728 0 0 0 .549.089 1.751 1.751 0 0 0 1.662-1.2 21.987 21.987 0 0 0 .781-3.165 1.75 1.75 0 1 0 -3.449-.592z" fill="url(#linear-gradient)"/></svg>