<?xml version="1.0" encoding="utf-8"?>
<!-- Generator: Adobe Illustrator 21.0.0, SVG Export Plug-In . SVG Version: 6.00 Build 0)  -->
<svg version="1.1" id="Layer_1" xmlns="http://www.w3.org/2000/svg" xmlns:xlink="http://www.w3.org/1999/xlink" x="0px" y="0px"
	 viewBox="0 0 165 35" style="enable-background:new 0 0 165 35;" xml:space="preserve">
<style type="text/css">
	.st0{fill:#FFFFFF;}
</style>
<g>
	<g id="XMLID_49_">
		<g id="XMLID_50_">
			<g id="XMLID_7_">
				<path id="XMLID_8_" class="st0" d="M6,9.1c0.6,0,0.9,0.3,0.9,0.9v11.6c0,2.3,0.1,3.7,2.3,3.7c2.2,0,2.3-1.4,2.3-3.7V10
					c0-0.6,0.3-0.9,0.9-0.9h3.3c0.6,0,0.9,0.3,0.9,0.9v13.1c0,1.9-0.4,7.2-7.4,7.2s-7.4-5.2-7.4-7.2V10c0-0.6,0.3-0.9,0.9-0.9H6z"/>
				<path id="XMLID_10_" class="st0" d="M27.8,9.1c0.5,0,0.8,0.3,0.9,0.8l2.1,8.6c0.1,0.3,0.3,0.3,0.4,0l2.1-8.6
					c0.1-0.5,0.4-0.8,0.9-0.8h6.1c0.6,0,0.9,0.3,0.9,0.9v18.9c0,0.6-0.3,0.9-0.9,0.9h-3.3c-0.6,0-0.9-0.3-0.9-0.9V17.2
					c0-0.2-0.3-0.2-0.3,0L33,29c-0.1,0.5-0.4,0.8-1,0.8h-1.9c-0.5,0-0.9-0.3-1-0.8l-2.9-11.8c-0.1-0.2-0.3-0.2-0.3,0v11.6
					c0,0.6-0.3,0.9-0.9,0.9h-3.3c-0.6,0-0.9-0.3-0.9-0.9V10c0-0.6,0.3-0.9,0.9-0.9H27.8z"/>
				<path id="XMLID_12_" class="st0" d="M60,28.7c0,0.6-0.3,1-0.9,1h-3.3c-0.6,0-0.9-0.3-0.9-0.9v-2.6c0-0.6-0.3-0.9-0.9-0.9h-2.5
					c-0.6,0-0.9,0.3-0.9,0.9v2.6c0,0.6-0.3,0.9-0.9,0.9h-3.3c-0.6,0-0.9-0.4-0.9-1V16.2c0-3.7,0.6-7.7,7.2-7.7c6.6,0,7.2,4,7.2,7.7
					V28.7z M54.9,16.2c0-1.4-0.2-2.1-2.2-2.1c-1.9,0-2.2,0.7-2.2,2.1v3.2c0,0.6,0.3,0.9,0.9,0.9H54c0.6,0,0.9-0.3,0.9-0.9V16.2z"/>
				<path id="XMLID_15_" class="st0" d="M79.8,28.2c0.4,0.8-0.1,1.6-1,1.6h-3.4c-0.3,0-0.6-0.1-0.7-0.4l-3.1-5.9
					c-0.1-0.1-0.1-0.1-0.2-0.1h-1.2c-0.5,0-0.9,0.4-0.9,0.9v4.7c0,0.5-0.4,0.9-0.9,0.9h-3.3c-0.5,0-0.9-0.4-0.9-0.9V10
					c0-0.5,0.4-0.9,0.9-0.9h6.5c5.3,0,7.4,2.2,7.4,7.1c0,2.7-0.7,4.7-2.2,5.8c-0.1,0.1-0.1,0.2-0.1,0.4L79.8,28.2z M70.3,14.2
					c-0.5,0-0.9,0.4-0.9,0.9v2.2c0,0.5,0.4,0.9,0.9,0.9h1.5c1.4,0,2.1-0.2,2.1-2c0-1.8-0.7-2-2.1-2H70.3z"/>
				<path id="XMLID_18_" class="st0" d="M106.1,24.7c0.6,0,0.9,0.3,0.9,0.9v3.3c0,0.6-0.3,0.9-0.9,0.9H91.4c-0.7,0-1-0.4-0.6-1.1
					l8.1-14.2c0.1-0.2,0-0.4-0.2-0.4H93c-0.6,0-0.9-0.3-0.9-0.9V10c0-0.6,0.3-0.9,0.9-0.9h14.2c0.7,0,1,0.4,0.6,1.1l-8.2,14.2
					c-0.1,0.2,0,0.4,0.2,0.4H106.1z"/>
				<path id="XMLID_20_" class="st0" d="M133.9,9.1c0.5,0,0.8,0.2,1,0.7l4,9.8c0.1,0.3,0.4,0.2,0.4-0.1V10c0-0.6,0.3-0.9,0.9-0.9
					h3.3c0.6,0,0.9,0.3,0.9,0.9v18.9c0,0.6-0.3,0.9-0.9,0.9h-4.3c-0.5,0-0.8-0.2-1-0.7l-4-9.8c-0.1-0.3-0.4-0.2-0.4,0.1v9.5
					c0,0.6-0.3,0.9-0.9,0.9h-3.3c-0.6,0-0.9-0.3-0.9-0.9V10c0-0.6,0.3-0.9,0.9-0.9H133.9z"/>
				<path id="XMLID_22_" class="st0" d="M162.1,9.1c0.6,0,0.9,0.3,0.9,0.9v3.3c0,0.6-0.3,0.9-0.9,0.9H155c-0.6,0-0.9,0.3-0.9,0.9V16
					c0,0.6,0.3,0.9,0.9,0.9h4.6c0.6,0,0.9,0.3,0.9,0.9v3.3c0,0.6-0.3,0.9-0.9,0.9H155c-0.6,0-0.9,0.3-0.9,0.9v0.9
					c0,0.6,0.3,0.9,0.9,0.9h7.1c0.6,0,0.9,0.3,0.9,0.9v3.3c0,0.6-0.3,0.9-0.9,0.9h-12.4c-0.6,0-0.9-0.3-0.9-0.9V10
					c0-0.6,0.3-0.9,0.9-0.9H162.1z"/>
			</g>
			<path id="XMLID_55_" class="st0" d="M117.6,7.5c-4.8,0-8.7,3.9-8.7,8.7c0,1.9,0.6,3.7,1.7,5.2l6.9,9.2l6.9-9.2
				c1.1-1.4,1.7-3.2,1.7-5.2C126.3,11.4,122.4,7.5,117.6,7.5z M117.6,23c-3.7,0-6.8-3-6.8-6.8s3-6.8,6.8-6.8c3.7,0,6.8,3,6.8,6.8
				S121.4,23,117.6,23z M121.9,16.4c0,2.3-1.9,4.2-4.2,4.2c-2.3,0-4.2-1.9-4.2-4.2c0-2.3,1.9-4.2,4.2-4.2
				C120,12.2,121.9,14.1,121.9,16.4z"/>
		</g>
	</g>
	<g id="XMLID_2_">
		<path id="XMLID_3_" class="st0" d="M158.6,4.8c0-0.2,0-0.4,0.1-0.6c0.1-0.2,0.1-0.4,0.2-0.6c0.1-0.2,0.2-0.3,0.4-0.5
			c0.1-0.1,0.3-0.3,0.5-0.4c0.2-0.1,0.4-0.2,0.6-0.2c0.2-0.1,0.4-0.1,0.6-0.1c0.2,0,0.4,0,0.6,0.1c0.2,0.1,0.4,0.1,0.6,0.2
			c0.2,0.1,0.3,0.2,0.5,0.4c0.1,0.1,0.3,0.3,0.4,0.5c0.1,0.2,0.2,0.4,0.2,0.6c0.1,0.2,0.1,0.4,0.1,0.6c0,0.2,0,0.4-0.1,0.6
			c-0.1,0.2-0.1,0.4-0.2,0.6s-0.2,0.3-0.4,0.5c-0.1,0.1-0.3,0.3-0.5,0.4c-0.2,0.1-0.4,0.2-0.6,0.2c-0.2,0.1-0.4,0.1-0.6,0.1
			c-0.2,0-0.4,0-0.6-0.1c-0.2-0.1-0.4-0.1-0.6-0.2c-0.2-0.1-0.3-0.2-0.5-0.4c-0.1-0.1-0.3-0.3-0.4-0.5c-0.1-0.2-0.2-0.4-0.2-0.6
			C158.6,5.2,158.6,5,158.6,4.8z M159,4.8c0,0.3,0.1,0.5,0.2,0.8c0.1,0.2,0.2,0.4,0.4,0.6c0.2,0.2,0.4,0.3,0.6,0.4
			c0.2,0.1,0.5,0.2,0.8,0.2c0.3,0,0.5-0.1,0.8-0.2c0.2-0.1,0.4-0.2,0.6-0.4c0.2-0.2,0.3-0.4,0.4-0.6c0.1-0.2,0.2-0.5,0.2-0.8
			s-0.1-0.5-0.2-0.8c-0.1-0.2-0.2-0.4-0.4-0.6c-0.2-0.2-0.4-0.3-0.6-0.4c-0.2-0.1-0.5-0.2-0.8-0.2c-0.3,0-0.5,0.1-0.8,0.2
			c-0.2,0.1-0.4,0.2-0.6,0.4c-0.2,0.2-0.3,0.4-0.4,0.6C159,4.3,159,4.5,159,4.8z M162,6.1h-0.5L160.8,5h-0.3v1.2h-0.4V3.4h0.7
			c0.1,0,0.3,0,0.4,0c0.1,0,0.2,0.1,0.3,0.1c0.1,0.1,0.2,0.1,0.2,0.2c0.1,0.1,0.1,0.2,0.1,0.4c0,0.1,0,0.2-0.1,0.3
			c0,0.1-0.1,0.2-0.1,0.2c-0.1,0.1-0.1,0.1-0.2,0.2c-0.1,0-0.2,0.1-0.2,0.1v0L162,6.1z M161.4,4.2c0-0.1-0.1-0.2-0.2-0.3
			c-0.1-0.1-0.3-0.1-0.5-0.1h-0.3v0.8h0.3c0.2,0,0.4,0,0.5-0.1C161.4,4.5,161.4,4.3,161.4,4.2z"/>
	</g>
</g>
</svg>
